<mxfile host="app.diagrams.net" modified="2023-11-18T18:37:20.767Z" agent="Mozilla/5.0 (Windows NT 10.0; Win64; x64) AppleWebKit/537.36 (KHTML, like Gecko) Chrome/119.0.0.0 Safari/537.36" etag="vLgYTnTgxJ4yuZ9qTlgV" version="22.1.3" type="google">
  <diagram id="MgictHQRoUKAv74sHJFK" name="Page-1">
    <mxGraphModel grid="0" page="0" gridSize="10" guides="1" tooltips="1" connect="1" arrows="1" fold="1" pageScale="1" pageWidth="827" pageHeight="1169" background="#FFFFFF" math="0" shadow="0">
      <root>
        <mxCell id="0" />
        <mxCell id="1" parent="0" />
        <mxCell id="f_1pqu_zXenyng1Q9uDo-21" value="views" style="shape=folder;fontStyle=1;tabWidth=110;tabHeight=30;tabPosition=left;html=1;boundedLbl=1;labelInHeader=1;container=1;collapsible=0;whiteSpace=wrap;strokeWidth=4;fontSize=16;" vertex="1" parent="1">
          <mxGeometry x="4228" y="-1604" width="840" height="198" as="geometry" />
        </mxCell>
        <mxCell id="f_1pqu_zXenyng1Q9uDo-22" value="" style="html=1;strokeColor=none;resizeWidth=1;resizeHeight=1;fillColor=none;part=1;connectable=0;allowArrows=0;deletable=0;whiteSpace=wrap;fontSize=16;" vertex="1" parent="f_1pqu_zXenyng1Q9uDo-21">
          <mxGeometry width="840" height="137.49999999999997" relative="1" as="geometry">
            <mxPoint y="30" as="offset" />
          </mxGeometry>
        </mxCell>
        <mxCell id="VIXJ5bsO2ajyu1eOoAfc-24" value="CarparkInfo" style="shape=umlBoundary;whiteSpace=wrap;html=1;fontSize=16;" vertex="1" parent="f_1pqu_zXenyng1Q9uDo-21">
          <mxGeometry x="689" y="67" width="100" height="80" as="geometry" />
        </mxCell>
        <mxCell id="f_1pqu_zXenyng1Q9uDo-23" value="SettingsUI" style="shape=umlBoundary;whiteSpace=wrap;html=1;fontSize=16;" vertex="1" parent="f_1pqu_zXenyng1Q9uDo-21">
          <mxGeometry x="63" y="67" width="100" height="80" as="geometry" />
        </mxCell>
        <mxCell id="f_1pqu_zXenyng1Q9uDo-24" value="HistoryUI" style="shape=umlBoundary;whiteSpace=wrap;html=1;fontSize=16;" vertex="1" parent="f_1pqu_zXenyng1Q9uDo-21">
          <mxGeometry x="223.84988338192488" y="67" width="100.14577259475219" height="80" as="geometry" />
        </mxCell>
        <mxCell id="f_1pqu_zXenyng1Q9uDo-27" value="SearchUI" style="shape=umlBoundary;whiteSpace=wrap;html=1;fontSize=16;" vertex="1" parent="f_1pqu_zXenyng1Q9uDo-21">
          <mxGeometry x="548.9979008746359" y="67" width="100.14577259475219" height="80" as="geometry" />
        </mxCell>
        <mxCell id="f_1pqu_zXenyng1Q9uDo-25" value="MapUI" style="shape=umlBoundary;whiteSpace=wrap;html=1;fontSize=16;" vertex="1" parent="f_1pqu_zXenyng1Q9uDo-21">
          <mxGeometry x="389" y="67" width="100" height="80" as="geometry" />
        </mxCell>
        <mxCell id="f_1pqu_zXenyng1Q9uDo-28" value="viewmodels" style="shape=folder;fontStyle=1;tabWidth=110;tabHeight=30;tabPosition=left;html=1;boundedLbl=1;labelInHeader=1;container=1;collapsible=0;whiteSpace=wrap;strokeWidth=4;fontSize=16;movable=1;resizable=1;rotatable=1;deletable=1;editable=1;locked=0;connectable=1;" vertex="1" parent="1">
          <mxGeometry x="4228" y="-1366" width="878" height="427" as="geometry" />
        </mxCell>
        <mxCell id="f_1pqu_zXenyng1Q9uDo-29" value="" style="html=1;strokeColor=none;resizeWidth=1;resizeHeight=1;fillColor=none;part=1;connectable=1;allowArrows=0;deletable=1;whiteSpace=wrap;movable=1;resizable=1;rotatable=1;editable=1;locked=0;" vertex="1" parent="f_1pqu_zXenyng1Q9uDo-28">
          <mxGeometry width="878" height="301.4117647058824" relative="1" as="geometry">
            <mxPoint y="30" as="offset" />
          </mxGeometry>
        </mxCell>
        <mxCell id="f_1pqu_zXenyng1Q9uDo-34" value="SettingsViewModel" style="ellipse;shape=umlControl;whiteSpace=wrap;html=1;fontSize=16;movable=1;resizable=1;rotatable=1;deletable=1;editable=1;locked=0;connectable=1;" vertex="1" parent="f_1pqu_zXenyng1Q9uDo-28">
          <mxGeometry x="88" y="117" width="70" height="80" as="geometry" />
        </mxCell>
        <mxCell id="f_1pqu_zXenyng1Q9uDo-42" value="«interface»&lt;br style=&quot;border-color: var(--border-color); font-size: 16px;&quot;&gt;&lt;b style=&quot;border-color: var(--border-color); font-size: 16px;&quot;&gt;PreferencesMixin&lt;br style=&quot;font-size: 16px;&quot;&gt;&lt;/b&gt;" style="ellipse;shape=umlControl;whiteSpace=wrap;html=1;fontSize=16;movable=1;resizable=1;rotatable=1;deletable=1;editable=1;locked=0;connectable=1;" vertex="1" parent="f_1pqu_zXenyng1Q9uDo-28">
          <mxGeometry x="170" y="43" width="70" height="80" as="geometry" />
        </mxCell>
        <mxCell id="f_1pqu_zXenyng1Q9uDo-38" value="HistoryViewModel" style="ellipse;shape=umlControl;whiteSpace=wrap;html=1;fontSize=16;movable=1;resizable=1;rotatable=1;deletable=1;editable=1;locked=0;connectable=1;" vertex="1" parent="f_1pqu_zXenyng1Q9uDo-28">
          <mxGeometry x="251" y="117" width="70" height="80" as="geometry" />
        </mxCell>
        <mxCell id="f_1pqu_zXenyng1Q9uDo-37" value="SearchViewModel" style="ellipse;shape=umlControl;whiteSpace=wrap;html=1;fontSize=16;movable=1;resizable=1;rotatable=1;deletable=1;editable=1;locked=0;connectable=1;" vertex="1" parent="f_1pqu_zXenyng1Q9uDo-28">
          <mxGeometry x="574" y="117" width="70" height="80" as="geometry" />
        </mxCell>
        <mxCell id="f_1pqu_zXenyng1Q9uDo-36" value="MapViewModel" style="ellipse;shape=umlControl;whiteSpace=wrap;html=1;fontSize=16;movable=1;resizable=1;rotatable=1;deletable=1;editable=1;locked=0;connectable=1;" vertex="1" parent="f_1pqu_zXenyng1Q9uDo-28">
          <mxGeometry x="413" y="117" width="70" height="80" as="geometry" />
        </mxCell>
        <mxCell id="f_1pqu_zXenyng1Q9uDo-44" value="«interface»&lt;br style=&quot;border-color: var(--border-color); font-size: 16px;&quot;&gt;&lt;b style=&quot;border-color: var(--border-color); font-size: 16px;&quot;&gt;MapMixin&lt;br style=&quot;font-size: 16px;&quot;&gt;&lt;/b&gt;" style="ellipse;shape=umlControl;whiteSpace=wrap;html=1;fontSize=16;movable=1;resizable=1;rotatable=1;deletable=1;editable=1;locked=0;connectable=1;" vertex="1" parent="f_1pqu_zXenyng1Q9uDo-28">
          <mxGeometry x="757" y="117" width="70" height="80" as="geometry" />
        </mxCell>
        <mxCell id="f_1pqu_zXenyng1Q9uDo-43" value="«interface»&lt;br style=&quot;border-color: var(--border-color); font-size: 16px;&quot;&gt;&lt;b style=&quot;border-color: var(--border-color); font-size: 16px;&quot;&gt;NearbyCarparksMixin&lt;br style=&quot;font-size: 16px;&quot;&gt;&lt;/b&gt;" style="ellipse;shape=umlControl;whiteSpace=wrap;html=1;fontSize=16;movable=1;resizable=1;rotatable=1;deletable=1;editable=1;locked=0;connectable=1;" vertex="1" parent="f_1pqu_zXenyng1Q9uDo-28">
          <mxGeometry x="757" y="244" width="70" height="80" as="geometry" />
        </mxCell>
        <mxCell id="f_1pqu_zXenyng1Q9uDo-82" value="«interface»&lt;br style=&quot;border-color: var(--border-color); font-size: 16px;&quot;&gt;&lt;b style=&quot;border-color: var(--border-color); font-size: 16px;&quot;&gt;HistoryMixin&lt;br style=&quot;font-size: 16px;&quot;&gt;&lt;/b&gt;" style="ellipse;shape=umlControl;whiteSpace=wrap;html=1;fontSize=16;movable=1;resizable=1;rotatable=1;deletable=1;editable=1;locked=0;connectable=1;" vertex="1" parent="f_1pqu_zXenyng1Q9uDo-28">
          <mxGeometry x="603" y="230" width="70" height="80" as="geometry" />
        </mxCell>
        <mxCell id="VIXJ5bsO2ajyu1eOoAfc-13" value="Use" style="endArrow=open;endSize=12;dashed=1;html=1;rounded=0;exitX=0.786;exitY=0.954;exitDx=0;exitDy=0;exitPerimeter=0;entryX=0.5;entryY=1.008;entryDx=0;entryDy=0;entryPerimeter=0;edgeStyle=elbowEdgeStyle;" edge="1" parent="f_1pqu_zXenyng1Q9uDo-28" source="f_1pqu_zXenyng1Q9uDo-34" target="f_1pqu_zXenyng1Q9uDo-42">
          <mxGeometry x="0.125" width="160" relative="1" as="geometry">
            <mxPoint x="617" y="-218" as="sourcePoint" />
            <mxPoint x="736" y="-218" as="targetPoint" />
            <mxPoint as="offset" />
            <Array as="points">
              <mxPoint x="205" y="154" />
            </Array>
          </mxGeometry>
        </mxCell>
        <mxCell id="VIXJ5bsO2ajyu1eOoAfc-12" value="Use" style="endArrow=open;endSize=12;dashed=1;html=1;rounded=0;exitX=1.022;exitY=0.543;exitDx=0;exitDy=0;exitPerimeter=0;entryX=-0.029;entryY=0.561;entryDx=0;entryDy=0;entryPerimeter=0;elbow=vertical;" edge="1" parent="f_1pqu_zXenyng1Q9uDo-28" source="f_1pqu_zXenyng1Q9uDo-36" target="f_1pqu_zXenyng1Q9uDo-44">
          <mxGeometry x="0.125" width="160" relative="1" as="geometry">
            <mxPoint x="539" y="-119" as="sourcePoint" />
            <mxPoint x="699" y="-119" as="targetPoint" />
            <mxPoint as="offset" />
          </mxGeometry>
        </mxCell>
        <mxCell id="VIXJ5bsO2ajyu1eOoAfc-14" value="Use" style="endArrow=open;endSize=12;dashed=1;html=1;rounded=0;exitX=0.747;exitY=0.971;exitDx=0;exitDy=0;exitPerimeter=0;entryX=0.49;entryY=0.095;entryDx=0;entryDy=0;entryPerimeter=0;edgeStyle=elbowEdgeStyle;elbow=vertical;" edge="1" parent="f_1pqu_zXenyng1Q9uDo-28" source="f_1pqu_zXenyng1Q9uDo-37" target="f_1pqu_zXenyng1Q9uDo-82">
          <mxGeometry x="0.125" width="160" relative="1" as="geometry">
            <mxPoint x="130" y="-187" as="sourcePoint" />
            <mxPoint x="155" y="-130" as="targetPoint" />
            <mxPoint as="offset" />
          </mxGeometry>
        </mxCell>
        <mxCell id="DBznlWsXIsD9XZsF1K2d-2" value="Extends" style="endArrow=block;endSize=16;endFill=0;html=1;rounded=0;entryX=0.531;entryY=0.066;entryDx=0;entryDy=0;entryPerimeter=0;exitX=0.501;exitY=1.01;exitDx=0;exitDy=0;exitPerimeter=0;" edge="1" parent="f_1pqu_zXenyng1Q9uDo-28" source="f_1pqu_zXenyng1Q9uDo-44" target="f_1pqu_zXenyng1Q9uDo-43">
          <mxGeometry x="-0.593" y="8" width="160" relative="1" as="geometry">
            <mxPoint x="772" y="199" as="sourcePoint" />
            <mxPoint x="458" y="335" as="targetPoint" />
            <mxPoint as="offset" />
          </mxGeometry>
        </mxCell>
        <mxCell id="DBznlWsXIsD9XZsF1K2d-4" value="Extends" style="endArrow=block;endSize=16;endFill=0;html=1;rounded=0;exitX=1.017;exitY=0.578;exitDx=0;exitDy=0;exitPerimeter=0;edgeStyle=orthogonalEdgeStyle;entryX=1.038;entryY=0.552;entryDx=0;entryDy=0;entryPerimeter=0;" edge="1" parent="f_1pqu_zXenyng1Q9uDo-28" source="f_1pqu_zXenyng1Q9uDo-44" target="f_1pqu_zXenyng1Q9uDo-42">
          <mxGeometry width="160" relative="1" as="geometry">
            <mxPoint x="328" y="266" as="sourcePoint" />
            <mxPoint x="488" y="266" as="targetPoint" />
            <Array as="points">
              <mxPoint x="858" y="163" />
              <mxPoint x="858" y="87" />
            </Array>
          </mxGeometry>
        </mxCell>
        <mxCell id="node45" value="&lt;p style=&quot;margin: 4px 0px 0px; text-align: center; font-size: 16px;&quot;&gt;&lt;b style=&quot;font-size: 16px;&quot;&gt;MainActivity&lt;/b&gt;&lt;/p&gt;&lt;hr style=&quot;font-size: 16px;&quot;&gt;" style="verticalAlign=top;align=left;overflow=fill;fontSize=16;fontFamily=Helvetica;html=1;rounded=0;shadow=0;comic=0;labelBackgroundColor=none;strokeWidth=1;fillColor=#fff2cc;strokeColor=#d6b656;" vertex="1" parent="1">
          <mxGeometry x="4228" y="-1682" width="292" height="30" as="geometry" />
        </mxCell>
        <mxCell id="f_1pqu_zXenyng1Q9uDo-62" value="models" style="shape=folder;fontStyle=1;tabWidth=110;tabHeight=30;tabPosition=left;html=1;boundedLbl=1;labelInHeader=1;container=1;collapsible=0;whiteSpace=wrap;strokeWidth=4;fontSize=16;" vertex="1" parent="1">
          <mxGeometry x="2911" y="-1710" width="1270" height="771" as="geometry" />
        </mxCell>
        <mxCell id="f_1pqu_zXenyng1Q9uDo-63" value="" style="html=1;strokeColor=none;resizeWidth=1;resizeHeight=1;fillColor=none;part=1;connectable=0;allowArrows=0;deletable=0;whiteSpace=wrap;fontSize=16;" vertex="1" parent="f_1pqu_zXenyng1Q9uDo-62">
          <mxGeometry width="1156.848404255319" height="539.7" relative="1" as="geometry">
            <mxPoint y="30" as="offset" />
          </mxGeometry>
        </mxCell>
        <mxCell id="RNvDilE5d-HPwLRLV1d9-32" value="&lt;p style=&quot;border-color: var(--border-color); margin: 4px 0px 0px;&quot;&gt;&lt;i style=&quot;border-color: var(--border-color);&quot;&gt;&amp;lt;&amp;lt;interface&amp;gt;&amp;gt;&lt;/i&gt;&lt;br style=&quot;border-color: var(--border-color);&quot;&gt;&lt;b&gt;Location&lt;/b&gt;&lt;/p&gt;" style="ellipse;shape=umlEntity;whiteSpace=wrap;html=1;fontSize=16;" vertex="1" parent="f_1pqu_zXenyng1Q9uDo-62">
          <mxGeometry x="414" y="411.5" width="90" height="90" as="geometry" />
        </mxCell>
        <mxCell id="RNvDilE5d-HPwLRLV1d9-34" value="&lt;i&gt;&amp;lt;&amp;lt;data&amp;gt;&amp;gt;&lt;/i&gt;&lt;br&gt;&lt;b&gt;UserPrefs&lt;/b&gt;" style="ellipse;shape=umlEntity;whiteSpace=wrap;html=1;fontSize=16;" vertex="1" parent="f_1pqu_zXenyng1Q9uDo-62">
          <mxGeometry x="693" y="606.5" width="90" height="90" as="geometry" />
        </mxCell>
        <mxCell id="f_1pqu_zXenyng1Q9uDo-74" value="&lt;i&gt;&amp;lt;&amp;lt;data&amp;gt;&amp;gt;&lt;/i&gt; &lt;b&gt;StoredLocation&lt;/b&gt;" style="ellipse;shape=umlEntity;whiteSpace=wrap;html=1;fontSize=16;" vertex="1" parent="f_1pqu_zXenyng1Q9uDo-62">
          <mxGeometry x="893" y="606" width="90" height="90.5" as="geometry" />
        </mxCell>
        <mxCell id="node27" value="&lt;p style=&quot;margin: 4px 0px 0px; text-align: center; font-size: 16px;&quot;&gt;&lt;i style=&quot;font-size: 16px;&quot;&gt;&amp;lt;&amp;lt;enumeration&amp;gt;&amp;gt;&lt;/i&gt;&lt;br style=&quot;font-size: 16px;&quot;&gt;&lt;b style=&quot;font-size: 16px;&quot;&gt;Agency&lt;/b&gt;&lt;/p&gt;&lt;hr style=&quot;font-size: 16px;&quot;&gt;" style="verticalAlign=top;align=left;overflow=fill;fontSize=16;fontFamily=Helvetica;html=1;rounded=0;shadow=0;comic=0;labelBackgroundColor=none;strokeWidth=1;fillColor=#dae8fc;strokeColor=#6c8ebf;" vertex="1" parent="f_1pqu_zXenyng1Q9uDo-62">
          <mxGeometry x="1117" y="296" width="110" height="40" as="geometry" />
        </mxCell>
        <mxCell id="node50" value="&lt;p style=&quot;margin: 4px 0px 0px; text-align: center; font-size: 16px;&quot;&gt;&lt;i style=&quot;font-size: 16px;&quot;&gt;&amp;lt;&amp;lt;enumeration&amp;gt;&amp;gt;&lt;/i&gt;&lt;br style=&quot;font-size: 16px;&quot;&gt;&lt;b style=&quot;font-size: 16px;&quot;&gt;ParkingSystem&lt;/b&gt;&lt;/p&gt;&lt;hr style=&quot;font-size: 16px;&quot;&gt;" style="verticalAlign=top;align=left;overflow=fill;fontSize=16;fontFamily=Helvetica;html=1;rounded=0;shadow=0;comic=0;labelBackgroundColor=none;strokeWidth=1;fillColor=#dae8fc;strokeColor=#6c8ebf;" vertex="1" parent="f_1pqu_zXenyng1Q9uDo-62">
          <mxGeometry x="32" y="311" width="170" height="40" as="geometry" />
        </mxCell>
        <mxCell id="node47" value="&lt;p style=&quot;margin: 4px 0px 0px; text-align: center; font-size: 16px;&quot;&gt;&lt;i style=&quot;font-size: 16px;&quot;&gt;&amp;lt;&amp;lt;enumeration&amp;gt;&amp;gt;&lt;/i&gt;&lt;br style=&quot;font-size: 16px;&quot;&gt;&lt;b style=&quot;font-size: 16px;&quot;&gt;Feature&lt;/b&gt;&lt;/p&gt;&lt;hr style=&quot;font-size: 16px;&quot;&gt;" style="verticalAlign=top;align=left;overflow=fill;fontSize=16;fontFamily=Helvetica;html=1;rounded=0;shadow=0;comic=0;labelBackgroundColor=none;strokeWidth=1;fillColor=#dae8fc;strokeColor=#6c8ebf;" vertex="1" parent="f_1pqu_zXenyng1Q9uDo-62">
          <mxGeometry x="622" y="173" width="110" height="40" as="geometry" />
        </mxCell>
        <mxCell id="node52" value="&lt;p style=&quot;margin: 4px 0px 0px; text-align: center; font-size: 16px;&quot;&gt;&lt;i style=&quot;font-size: 16px;&quot;&gt;&amp;lt;&amp;lt;enumeration&amp;gt;&amp;gt;&lt;/i&gt;&lt;br style=&quot;font-size: 16px;&quot;&gt;&lt;b style=&quot;font-size: 16px;&quot;&gt;ChargeType&lt;/b&gt;&lt;/p&gt;&lt;hr style=&quot;font-size: 16px;&quot;&gt;" style="verticalAlign=top;align=left;overflow=fill;fontSize=16;fontFamily=Helvetica;html=1;rounded=0;shadow=0;comic=0;labelBackgroundColor=none;strokeWidth=1;fillColor=#dae8fc;strokeColor=#6c8ebf;" vertex="1" parent="f_1pqu_zXenyng1Q9uDo-62">
          <mxGeometry x="42" y="174.25" width="150" height="40" as="geometry" />
        </mxCell>
        <mxCell id="node25" value="&lt;p style=&quot;margin: 4px 0px 0px; text-align: center; font-size: 16px;&quot;&gt;&lt;i style=&quot;font-size: 16px;&quot;&gt;&amp;lt;&amp;lt;enumeration&amp;gt;&amp;gt;&lt;/i&gt;&lt;br style=&quot;font-size: 16px;&quot;&gt;&lt;b style=&quot;font-size: 16px;&quot;&gt;FuelType&lt;/b&gt;&lt;/p&gt;&lt;hr style=&quot;font-size: 16px;&quot;&gt;" style="verticalAlign=top;align=left;overflow=fill;fontSize=16;fontFamily=Helvetica;html=1;rounded=0;shadow=0;comic=0;labelBackgroundColor=none;strokeWidth=1;fillColor=#dae8fc;strokeColor=#6c8ebf;" vertex="1" parent="f_1pqu_zXenyng1Q9uDo-62">
          <mxGeometry x="57" y="243" width="120" height="40" as="geometry" />
        </mxCell>
        <mxCell id="AScol65-oUHLikT5JaTr-22" value="&lt;i style=&quot;border-color: var(--border-color); font-size: 16px;&quot;&gt;&amp;lt;&amp;lt;data&amp;gt;&amp;gt;&lt;/i&gt;&lt;br&gt;&lt;b&gt;&lt;font style=&quot;font-size: 16px;&quot;&gt;SortingStrategy&lt;/font&gt;&lt;/b&gt;" style="ellipse;shape=umlEntity;whiteSpace=wrap;html=1;" vertex="1" parent="f_1pqu_zXenyng1Q9uDo-62">
          <mxGeometry x="844" y="149" width="90" height="90.5" as="geometry" />
        </mxCell>
        <mxCell id="f_1pqu_zXenyng1Q9uDo-85" value="&lt;p style=&quot;border-color: var(--border-color); font-size: 16px; margin: 4px 0px 0px;&quot;&gt;&lt;i style=&quot;border-color: var(--border-color);&quot;&gt;&amp;lt;&amp;lt;data&amp;gt;&amp;gt;&lt;/i&gt;&lt;br style=&quot;border-color: var(--border-color);&quot;&gt;&lt;b style=&quot;border-color: var(--border-color);&quot;&gt;NamedFilters&lt;/b&gt;&lt;/p&gt;&lt;p style=&quot;border-color: var(--border-color); font-size: 16px; margin: 4px 0px 0px;&quot;&gt;&lt;/p&gt;" style="ellipse;shape=umlEntity;whiteSpace=wrap;html=1;" vertex="1" parent="f_1pqu_zXenyng1Q9uDo-62">
          <mxGeometry x="1083" y="606" width="90" height="90" as="geometry" />
        </mxCell>
        <mxCell id="AScol65-oUHLikT5JaTr-24" value="&lt;font style=&quot;font-size: 16px;&quot;&gt;&lt;i&gt;&amp;lt;&amp;lt;data&amp;gt;&amp;gt;&lt;/i&gt;&lt;br&gt;&lt;b&gt;Carpark&lt;/b&gt;&lt;/font&gt;" style="ellipse;shape=umlEntity;whiteSpace=wrap;html=1;" vertex="1" parent="f_1pqu_zXenyng1Q9uDo-62">
          <mxGeometry x="414" y="149.5" width="90" height="90" as="geometry" />
        </mxCell>
        <mxCell id="f_1pqu_zXenyng1Q9uDo-86" value="&lt;p style=&quot;border-color: var(--border-color); font-size: 16px; margin: 4px 0px 0px;&quot;&gt;&lt;i style=&quot;border-color: var(--border-color);&quot;&gt;&amp;lt;&amp;lt;interface&amp;gt;&amp;gt;&lt;/i&gt;&lt;br style=&quot;border-color: var(--border-color);&quot;&gt;&lt;b style=&quot;border-color: var(--border-color);&quot;&gt;NamedFilter&lt;/b&gt;&lt;/p&gt;" style="ellipse;shape=umlEntity;whiteSpace=wrap;html=1;" vertex="1" parent="f_1pqu_zXenyng1Q9uDo-62">
          <mxGeometry x="844" y="261" width="90" height="90" as="geometry" />
        </mxCell>
        <mxCell id="AScol65-oUHLikT5JaTr-27" value="&lt;i style=&quot;border-color: var(--border-color); font-size: 16px;&quot;&gt;&amp;lt;&amp;lt;data&amp;gt;&amp;gt;&lt;/i&gt;&lt;br&gt;&lt;b&gt;&lt;font style=&quot;font-size: 16px;&quot;&gt;CarparkAvailability&lt;/font&gt;&lt;/b&gt;" style="ellipse;shape=umlEntity;whiteSpace=wrap;html=1;" vertex="1" parent="f_1pqu_zXenyng1Q9uDo-62">
          <mxGeometry x="267" y="261" width="90" height="90" as="geometry" />
        </mxCell>
        <mxCell id="AScol65-oUHLikT5JaTr-28" value="&lt;i style=&quot;border-color: var(--border-color); font-size: 16px;&quot;&gt;&amp;lt;&amp;lt;data&amp;gt;&amp;gt;&lt;/i&gt;&lt;br&gt;&lt;b&gt;&lt;font style=&quot;font-size: 16px;&quot;&gt;Coordinate&lt;/font&gt;&lt;/b&gt;" style="ellipse;shape=umlEntity;whiteSpace=wrap;html=1;" vertex="1" parent="f_1pqu_zXenyng1Q9uDo-62">
          <mxGeometry x="267" y="411.5" width="90" height="90" as="geometry" />
        </mxCell>
        <mxCell id="AScol65-oUHLikT5JaTr-26" value="&lt;i style=&quot;border-color: var(--border-color); font-size: 16px;&quot;&gt;&amp;lt;&amp;lt;data&amp;gt;&amp;gt;&lt;/i&gt;&lt;br&gt;&lt;b&gt;&lt;font style=&quot;font-size: 16px;&quot;&gt;Lot&lt;/font&gt;&lt;/b&gt;" style="ellipse;shape=umlEntity;whiteSpace=wrap;html=1;" vertex="1" parent="f_1pqu_zXenyng1Q9uDo-62">
          <mxGeometry x="267" y="149.5" width="90" height="90" as="geometry" />
        </mxCell>
        <mxCell id="RNvDilE5d-HPwLRLV1d9-48" value="" style="endArrow=block;dashed=1;endFill=0;endSize=12;html=1;rounded=0;entryX=0.5;entryY=1;entryDx=0;entryDy=0;exitX=0.5;exitY=0;exitDx=0;exitDy=0;edgeStyle=elbowEdgeStyle;elbow=vertical;" edge="1" parent="f_1pqu_zXenyng1Q9uDo-62" source="f_1pqu_zXenyng1Q9uDo-74" target="RNvDilE5d-HPwLRLV1d9-32">
          <mxGeometry width="160" relative="1" as="geometry">
            <mxPoint x="423" y="560" as="sourcePoint" />
            <mxPoint x="583" y="560" as="targetPoint" />
            <Array as="points">
              <mxPoint x="706" y="577" />
            </Array>
          </mxGeometry>
        </mxCell>
        <mxCell id="AScol65-oUHLikT5JaTr-48" value="&lt;i style=&quot;border-color: var(--border-color); font-size: 16px;&quot;&gt;&amp;lt;&amp;lt;data&amp;gt;&amp;gt;&lt;/i&gt;&lt;br&gt;&lt;b&gt;&lt;font style=&quot;font-size: 16px;&quot;&gt;AgencyFilter&lt;/font&gt;&lt;/b&gt;" style="ellipse;shape=umlEntity;whiteSpace=wrap;html=1;" vertex="1" parent="f_1pqu_zXenyng1Q9uDo-62">
          <mxGeometry x="1127" y="411.5" width="90" height="90.5" as="geometry" />
        </mxCell>
        <mxCell id="f_1pqu_zXenyng1Q9uDo-92" value="" style="endArrow=block;dashed=1;endFill=0;endSize=12;html=1;rounded=0;entryX=0.5;entryY=1;entryDx=0;entryDy=0;exitX=0.278;exitY=0.009;exitDx=0;exitDy=0;edgeStyle=elbowEdgeStyle;elbow=vertical;exitPerimeter=0;" edge="1" parent="f_1pqu_zXenyng1Q9uDo-62" source="AScol65-oUHLikT5JaTr-48" target="f_1pqu_zXenyng1Q9uDo-86">
          <mxGeometry width="160" relative="1" as="geometry">
            <mxPoint x="751" y="438" as="sourcePoint" />
            <mxPoint x="911" y="438" as="targetPoint" />
            <Array as="points">
              <mxPoint x="1021" y="382" />
            </Array>
          </mxGeometry>
        </mxCell>
        <mxCell id="AScol65-oUHLikT5JaTr-49" value="&lt;i style=&quot;border-color: var(--border-color); font-size: 16px;&quot;&gt;&amp;lt;&amp;lt;data&amp;gt;&amp;gt;&lt;/i&gt;&lt;br&gt;&lt;b&gt;&lt;font style=&quot;font-size: 16px;&quot;&gt;VacancyFilter&lt;/font&gt;&lt;/b&gt;" style="ellipse;shape=umlEntity;whiteSpace=wrap;html=1;" vertex="1" parent="f_1pqu_zXenyng1Q9uDo-62">
          <mxGeometry x="978" y="411.5" width="90" height="90.5" as="geometry" />
        </mxCell>
        <mxCell id="AScol65-oUHLikT5JaTr-50" value="&lt;i style=&quot;border-color: var(--border-color); font-size: 16px;&quot;&gt;&amp;lt;&amp;lt;data&amp;gt;&amp;gt;&lt;/i&gt;&lt;br&gt;&lt;b&gt;&lt;font style=&quot;font-size: 16px;&quot;&gt;DistanceFilter&lt;/font&gt;&lt;/b&gt;" style="ellipse;shape=umlEntity;whiteSpace=wrap;html=1;" vertex="1" parent="f_1pqu_zXenyng1Q9uDo-62">
          <mxGeometry x="710" y="411.5" width="90" height="90.5" as="geometry" />
        </mxCell>
        <mxCell id="AScol65-oUHLikT5JaTr-51" value="&lt;i style=&quot;border-color: var(--border-color); font-size: 16px;&quot;&gt;&amp;lt;&amp;lt;data&amp;gt;&amp;gt;&lt;/i&gt;&lt;br&gt;&lt;b&gt;&lt;font style=&quot;font-size: 16px;&quot;&gt;PriceFilter&lt;/font&gt;&lt;/b&gt;" style="ellipse;shape=umlEntity;whiteSpace=wrap;html=1;" vertex="1" parent="f_1pqu_zXenyng1Q9uDo-62">
          <mxGeometry x="844" y="411.5" width="90" height="90.5" as="geometry" />
        </mxCell>
        <mxCell id="AScol65-oUHLikT5JaTr-52" value="&lt;i style=&quot;border-color: var(--border-color); font-size: 16px;&quot;&gt;&amp;lt;&amp;lt;data&amp;gt;&amp;gt;&lt;/i&gt;&lt;br&gt;&lt;b&gt;&lt;font style=&quot;font-size: 16px;&quot;&gt;ParkingSystemFilter&lt;/font&gt;&lt;/b&gt;" style="ellipse;shape=umlEntity;whiteSpace=wrap;html=1;" vertex="1" parent="f_1pqu_zXenyng1Q9uDo-62">
          <mxGeometry x="570" y="411.5" width="90" height="90.5" as="geometry" />
        </mxCell>
        <mxCell id="RNvDilE5d-HPwLRLV1d9-57" value="" style="endArrow=diamondThin;endFill=0;endSize=24;html=1;rounded=0;exitX=0.5;exitY=0;exitDx=0;exitDy=0;entryX=0.5;entryY=1;entryDx=0;entryDy=0;strokeWidth=1;" edge="1" parent="f_1pqu_zXenyng1Q9uDo-62" source="AScol65-oUHLikT5JaTr-28" target="AScol65-oUHLikT5JaTr-27">
          <mxGeometry width="160" relative="1" as="geometry">
            <mxPoint x="419" y="687" as="sourcePoint" />
            <mxPoint x="76" y="1001" as="targetPoint" />
          </mxGeometry>
        </mxCell>
        <mxCell id="RNvDilE5d-HPwLRLV1d9-58" value="" style="endArrow=diamondThin;endFill=0;endSize=24;html=1;rounded=0;exitX=1;exitY=0.5;exitDx=0;exitDy=0;entryX=0;entryY=0.5;entryDx=0;entryDy=0;strokeWidth=1;" edge="1" parent="f_1pqu_zXenyng1Q9uDo-62" source="AScol65-oUHLikT5JaTr-28" target="RNvDilE5d-HPwLRLV1d9-32">
          <mxGeometry width="160" relative="1" as="geometry">
            <mxPoint x="273" y="361" as="sourcePoint" />
            <mxPoint x="378" y="300" as="targetPoint" />
          </mxGeometry>
        </mxCell>
        <mxCell id="RNvDilE5d-HPwLRLV1d9-59" value="" style="endArrow=diamondThin;endFill=0;endSize=24;html=1;rounded=0;exitX=0;exitY=1;exitDx=0;exitDy=0;entryX=1;entryY=0.5;entryDx=0;entryDy=0;strokeWidth=1;edgeStyle=elbowEdgeStyle;" edge="1" parent="f_1pqu_zXenyng1Q9uDo-62" source="AScol65-oUHLikT5JaTr-24" target="AScol65-oUHLikT5JaTr-27">
          <mxGeometry width="160" relative="1" as="geometry">
            <mxPoint x="280" y="326" as="sourcePoint" />
            <mxPoint x="264" y="433" as="targetPoint" />
          </mxGeometry>
        </mxCell>
        <mxCell id="f_1pqu_zXenyng1Q9uDo-119" value="0..1" style="edgeLabel;html=1;align=center;verticalAlign=middle;resizable=0;points=[];" connectable="0" vertex="1" parent="RNvDilE5d-HPwLRLV1d9-59">
          <mxGeometry x="-0.8725" y="2" relative="1" as="geometry">
            <mxPoint as="offset" />
          </mxGeometry>
        </mxCell>
        <mxCell id="RNvDilE5d-HPwLRLV1d9-60" value="" style="endArrow=diamondThin;endFill=1;endSize=24;html=1;rounded=0;exitX=1;exitY=0.5;exitDx=0;exitDy=0;entryX=0;entryY=0.5;entryDx=0;entryDy=0;" edge="1" parent="f_1pqu_zXenyng1Q9uDo-62" source="AScol65-oUHLikT5JaTr-26" target="AScol65-oUHLikT5JaTr-24">
          <mxGeometry width="160" relative="1" as="geometry">
            <mxPoint x="285" y="688" as="sourcePoint" />
            <mxPoint x="445" y="688" as="targetPoint" />
          </mxGeometry>
        </mxCell>
        <mxCell id="f_1pqu_zXenyng1Q9uDo-106" value="" style="endArrow=block;dashed=1;endFill=0;endSize=12;html=1;rounded=0;entryX=0.5;entryY=1;entryDx=0;entryDy=0;exitX=0.5;exitY=0;exitDx=0;exitDy=0;edgeStyle=elbowEdgeStyle;elbow=vertical;" edge="1" parent="f_1pqu_zXenyng1Q9uDo-62" source="AScol65-oUHLikT5JaTr-49" target="f_1pqu_zXenyng1Q9uDo-86">
          <mxGeometry width="160" relative="1" as="geometry">
            <mxPoint x="781" y="448" as="sourcePoint" />
            <mxPoint x="941" y="448" as="targetPoint" />
            <Array as="points">
              <mxPoint x="956" y="382" />
            </Array>
          </mxGeometry>
        </mxCell>
        <mxCell id="f_1pqu_zXenyng1Q9uDo-116" value="" style="endArrow=open;startArrow=cross;endFill=0;startFill=0;endSize=8;startSize=10;html=1;rounded=0;entryX=0.5;entryY=1;entryDx=0;entryDy=0;exitX=0.5;exitY=0;exitDx=0;exitDy=0;edgeStyle=elbowEdgeStyle;elbow=vertical;" edge="1" parent="f_1pqu_zXenyng1Q9uDo-62" source="f_1pqu_zXenyng1Q9uDo-85" target="AScol65-oUHLikT5JaTr-52">
          <mxGeometry width="160" relative="1" as="geometry">
            <mxPoint x="771" y="316.5" as="sourcePoint" />
            <mxPoint x="931" y="316.5" as="targetPoint" />
          </mxGeometry>
        </mxCell>
        <mxCell id="f_1pqu_zXenyng1Q9uDo-110" value="" style="endArrow=block;dashed=1;endFill=0;endSize=12;html=1;rounded=0;entryX=0.5;entryY=1;entryDx=0;entryDy=0;exitX=0.5;exitY=0;exitDx=0;exitDy=0;edgeStyle=elbowEdgeStyle;elbow=vertical;" edge="1" parent="f_1pqu_zXenyng1Q9uDo-62" source="AScol65-oUHLikT5JaTr-50" target="f_1pqu_zXenyng1Q9uDo-86">
          <mxGeometry width="160" relative="1" as="geometry">
            <mxPoint x="861" y="448" as="sourcePoint" />
            <mxPoint x="1021" y="448" as="targetPoint" />
            <Array as="points">
              <mxPoint x="823" y="382" />
            </Array>
          </mxGeometry>
        </mxCell>
        <mxCell id="f_1pqu_zXenyng1Q9uDo-115" value="" style="endArrow=open;startArrow=cross;endFill=0;startFill=0;endSize=8;startSize=10;html=1;rounded=0;exitX=0.5;exitY=0;exitDx=0;exitDy=0;entryX=0.5;entryY=1;entryDx=0;entryDy=0;edgeStyle=elbowEdgeStyle;elbow=vertical;" edge="1" parent="f_1pqu_zXenyng1Q9uDo-62" source="f_1pqu_zXenyng1Q9uDo-85" target="AScol65-oUHLikT5JaTr-48">
          <mxGeometry width="160" relative="1" as="geometry">
            <mxPoint x="811" y="401" as="sourcePoint" />
            <mxPoint x="971" y="401" as="targetPoint" />
          </mxGeometry>
        </mxCell>
        <mxCell id="f_1pqu_zXenyng1Q9uDo-109" value="" style="endArrow=block;dashed=1;endFill=0;endSize=12;html=1;rounded=0;exitX=0.5;exitY=0;exitDx=0;exitDy=0;entryX=0.5;entryY=1;entryDx=0;entryDy=0;" edge="1" parent="f_1pqu_zXenyng1Q9uDo-62" source="AScol65-oUHLikT5JaTr-51" target="f_1pqu_zXenyng1Q9uDo-86">
          <mxGeometry width="160" relative="1" as="geometry">
            <mxPoint x="861" y="448" as="sourcePoint" />
            <mxPoint x="861" y="358" as="targetPoint" />
          </mxGeometry>
        </mxCell>
        <mxCell id="f_1pqu_zXenyng1Q9uDo-113" value="" style="endArrow=open;startArrow=cross;endFill=0;startFill=0;endSize=8;startSize=10;html=1;rounded=0;exitX=0.5;exitY=0;exitDx=0;exitDy=0;entryX=0.5;entryY=1;entryDx=0;entryDy=0;edgeStyle=elbowEdgeStyle;elbow=vertical;" edge="1" parent="f_1pqu_zXenyng1Q9uDo-62" source="f_1pqu_zXenyng1Q9uDo-85" target="AScol65-oUHLikT5JaTr-50">
          <mxGeometry width="160" relative="1" as="geometry">
            <mxPoint x="781" y="538" as="sourcePoint" />
            <mxPoint x="941" y="538" as="targetPoint" />
          </mxGeometry>
        </mxCell>
        <mxCell id="f_1pqu_zXenyng1Q9uDo-114" value="" style="endArrow=open;startArrow=cross;endFill=0;startFill=0;endSize=8;startSize=10;html=1;rounded=0;exitX=0.5;exitY=0;exitDx=0;exitDy=0;entryX=0.5;entryY=1;entryDx=0;entryDy=0;edgeStyle=elbowEdgeStyle;elbow=vertical;" edge="1" parent="f_1pqu_zXenyng1Q9uDo-62" source="f_1pqu_zXenyng1Q9uDo-85" target="AScol65-oUHLikT5JaTr-51">
          <mxGeometry width="160" relative="1" as="geometry">
            <mxPoint x="808" y="641" as="sourcePoint" />
            <mxPoint x="941" y="414" as="targetPoint" />
          </mxGeometry>
        </mxCell>
        <mxCell id="f_1pqu_zXenyng1Q9uDo-108" value="" style="endArrow=block;dashed=1;endFill=0;endSize=12;html=1;rounded=0;entryX=0.5;entryY=1;entryDx=0;entryDy=0;elbow=vertical;exitX=0.623;exitY=0.017;exitDx=0;exitDy=0;exitPerimeter=0;edgeStyle=elbowEdgeStyle;strokeWidth=1;" edge="1" parent="f_1pqu_zXenyng1Q9uDo-62" source="AScol65-oUHLikT5JaTr-52" target="f_1pqu_zXenyng1Q9uDo-86">
          <mxGeometry width="160" relative="1" as="geometry">
            <mxPoint x="627" y="410" as="sourcePoint" />
            <mxPoint x="1021" y="448" as="targetPoint" />
            <Array as="points">
              <mxPoint x="757" y="382" />
            </Array>
          </mxGeometry>
        </mxCell>
        <mxCell id="f_1pqu_zXenyng1Q9uDo-112" value="" style="endArrow=open;startArrow=cross;endFill=0;startFill=0;endSize=8;startSize=10;html=1;rounded=0;exitX=0.5;exitY=0;exitDx=0;exitDy=0;entryX=0.5;entryY=1;entryDx=0;entryDy=0;edgeStyle=elbowEdgeStyle;elbow=vertical;" edge="1" parent="f_1pqu_zXenyng1Q9uDo-62" source="f_1pqu_zXenyng1Q9uDo-85" target="AScol65-oUHLikT5JaTr-49">
          <mxGeometry width="160" relative="1" as="geometry">
            <mxPoint x="781" y="538" as="sourcePoint" />
            <mxPoint x="941" y="538" as="targetPoint" />
          </mxGeometry>
        </mxCell>
        <mxCell id="f_1pqu_zXenyng1Q9uDo-120" value="" style="endArrow=block;dashed=1;endFill=0;endSize=12;html=1;rounded=0;exitX=0.5;exitY=1;exitDx=0;exitDy=0;entryX=0.5;entryY=0;entryDx=0;entryDy=0;" edge="1" parent="f_1pqu_zXenyng1Q9uDo-62" source="AScol65-oUHLikT5JaTr-24" target="RNvDilE5d-HPwLRLV1d9-32">
          <mxGeometry width="160" relative="1" as="geometry">
            <mxPoint x="271" y="378" as="sourcePoint" />
            <mxPoint x="431" y="378" as="targetPoint" />
          </mxGeometry>
        </mxCell>
        <mxCell id="f_1pqu_zXenyng1Q9uDo-122" value="" style="endArrow=diamondThin;endFill=0;endSize=24;html=1;rounded=0;entryX=1;entryY=0.5;entryDx=0;entryDy=0;exitX=0;exitY=0.5;exitDx=0;exitDy=0;" edge="1" parent="f_1pqu_zXenyng1Q9uDo-62" source="node47" target="AScol65-oUHLikT5JaTr-24">
          <mxGeometry width="160" relative="1" as="geometry">
            <mxPoint x="-58" y="353" as="sourcePoint" />
            <mxPoint x="241" y="358" as="targetPoint" />
          </mxGeometry>
        </mxCell>
        <mxCell id="f_1pqu_zXenyng1Q9uDo-125" value="" style="endArrow=diamondThin;endFill=0;endSize=24;html=1;rounded=0;entryX=0;entryY=0.5;entryDx=0;entryDy=0;exitX=1;exitY=0.5;exitDx=0;exitDy=0;" edge="1" parent="f_1pqu_zXenyng1Q9uDo-62" source="node52" target="AScol65-oUHLikT5JaTr-26">
          <mxGeometry width="160" relative="1" as="geometry">
            <mxPoint x="-21" y="433.5799999999999" as="sourcePoint" />
            <mxPoint x="302" y="675" as="targetPoint" />
          </mxGeometry>
        </mxCell>
        <mxCell id="f_1pqu_zXenyng1Q9uDo-127" value="" style="endArrow=diamondThin;endFill=0;endSize=24;html=1;rounded=0;entryX=0;entryY=0.5;entryDx=0;entryDy=0;exitX=1;exitY=0.5;exitDx=0;exitDy=0;edgeStyle=elbowEdgeStyle;" edge="1" parent="f_1pqu_zXenyng1Q9uDo-62" source="node25" target="AScol65-oUHLikT5JaTr-26">
          <mxGeometry width="160" relative="1" as="geometry">
            <mxPoint x="-1" y="527.6700000000001" as="sourcePoint" />
            <mxPoint x="159" y="527.6700000000001" as="targetPoint" />
          </mxGeometry>
        </mxCell>
        <mxCell id="f_1pqu_zXenyng1Q9uDo-128" value="" style="endArrow=diamondThin;endFill=0;endSize=24;html=1;rounded=0;exitX=0.64;exitY=1.054;exitDx=0;exitDy=0;entryX=0.671;entryY=0.035;entryDx=0;entryDy=0;entryPerimeter=0;exitPerimeter=0;" edge="1" parent="f_1pqu_zXenyng1Q9uDo-62" source="node27" target="AScol65-oUHLikT5JaTr-48">
          <mxGeometry width="160" relative="1" as="geometry">
            <mxPoint x="691" y="438" as="sourcePoint" />
            <mxPoint x="851" y="438" as="targetPoint" />
          </mxGeometry>
        </mxCell>
        <mxCell id="f_1pqu_zXenyng1Q9uDo-129" value="" style="endArrow=diamondThin;endFill=0;endSize=24;html=1;rounded=0;entryX=0;entryY=1;entryDx=0;entryDy=0;edgeStyle=elbowEdgeStyle;exitX=0.5;exitY=1;exitDx=0;exitDy=0;elbow=vertical;" edge="1" parent="f_1pqu_zXenyng1Q9uDo-62" source="node50" target="AScol65-oUHLikT5JaTr-52">
          <mxGeometry width="160" relative="1" as="geometry">
            <mxPoint x="12" y="540.6300000000001" as="sourcePoint" />
            <mxPoint x="534.9499999999998" y="497.7745" as="targetPoint" />
            <Array as="points">
              <mxPoint x="346" y="690" />
            </Array>
          </mxGeometry>
        </mxCell>
        <mxCell id="f_1pqu_zXenyng1Q9uDo-98" value="&lt;p style=&quot;margin: 4px 0px 0px; text-align: center; font-size: 16px;&quot;&gt;&lt;i style=&quot;font-size: 16px;&quot;&gt;&amp;lt;&amp;lt;enumeration&amp;gt;&amp;gt;&lt;/i&gt;&lt;br style=&quot;font-size: 16px;&quot;&gt;&lt;b style=&quot;font-size: 16px;&quot;&gt;SortingStrategy.Order&lt;/b&gt;&lt;/p&gt;" style="verticalAlign=top;align=left;overflow=fill;fontSize=16;fontFamily=Helvetica;html=1;rounded=0;shadow=0;comic=0;labelBackgroundColor=none;strokeWidth=1;fillColor=#dae8fc;strokeColor=#6c8ebf;" vertex="1" parent="f_1pqu_zXenyng1Q9uDo-62">
          <mxGeometry x="1028" y="140" width="200" height="40" as="geometry" />
        </mxCell>
        <mxCell id="f_1pqu_zXenyng1Q9uDo-104" value="" style="endArrow=diamondThin;endFill=0;endSize=24;html=1;rounded=0;exitX=0;exitY=0.5;exitDx=0;exitDy=0;entryX=1;entryY=0.5;entryDx=0;entryDy=0;edgeStyle=elbowEdgeStyle;" edge="1" parent="f_1pqu_zXenyng1Q9uDo-62" source="f_1pqu_zXenyng1Q9uDo-98" target="AScol65-oUHLikT5JaTr-22">
          <mxGeometry width="160" relative="1" as="geometry">
            <mxPoint x="642" y="527" as="sourcePoint" />
            <mxPoint x="802" y="527" as="targetPoint" />
          </mxGeometry>
        </mxCell>
        <mxCell id="f_1pqu_zXenyng1Q9uDo-99" value="&lt;p style=&quot;margin: 4px 0px 0px; text-align: center; font-size: 16px;&quot;&gt;&lt;i style=&quot;font-size: 16px;&quot;&gt;&amp;lt;&amp;lt;enumeration&amp;gt;&amp;gt;&lt;/i&gt;&lt;br style=&quot;font-size: 16px;&quot;&gt;&lt;b style=&quot;font-size: 16px;&quot;&gt;SortingStrategy.Mode&lt;/b&gt;&lt;/p&gt;" style="verticalAlign=top;align=left;overflow=fill;fontSize=16;fontFamily=Helvetica;html=1;rounded=0;shadow=0;comic=0;labelBackgroundColor=none;strokeWidth=1;fillColor=#dae8fc;strokeColor=#6c8ebf;" vertex="1" parent="f_1pqu_zXenyng1Q9uDo-62">
          <mxGeometry x="1028" y="213" width="200" height="40" as="geometry" />
        </mxCell>
        <mxCell id="f_1pqu_zXenyng1Q9uDo-105" value="" style="endArrow=diamondThin;endFill=0;endSize=24;html=1;rounded=0;entryX=1;entryY=0.5;entryDx=0;entryDy=0;exitX=0;exitY=0.5;exitDx=0;exitDy=0;edgeStyle=elbowEdgeStyle;" edge="1" parent="f_1pqu_zXenyng1Q9uDo-62" source="f_1pqu_zXenyng1Q9uDo-99" target="AScol65-oUHLikT5JaTr-22">
          <mxGeometry width="160" relative="1" as="geometry">
            <mxPoint x="792" y="567" as="sourcePoint" />
            <mxPoint x="952" y="567" as="targetPoint" />
          </mxGeometry>
        </mxCell>
        <mxCell id="node53" value="&lt;p style=&quot;margin: 4px 0px 0px; text-align: center; font-size: 16px;&quot;&gt;&lt;i style=&quot;font-size: 16px;&quot;&gt;&amp;lt;&amp;lt;enumeration&amp;gt;&amp;gt;&lt;/i&gt;&lt;br style=&quot;font-size: 16px;&quot;&gt;&lt;b style=&quot;font-size: 16px;&quot;&gt;VehicleType&lt;/b&gt;&lt;/p&gt;&lt;hr style=&quot;font-size: 16px;&quot;&gt;" style="verticalAlign=top;align=left;overflow=fill;fontSize=16;fontFamily=Helvetica;html=1;rounded=0;shadow=0;comic=0;labelBackgroundColor=none;strokeWidth=1;fillColor=#dae8fc;strokeColor=#6c8ebf;" vertex="1" parent="f_1pqu_zXenyng1Q9uDo-62">
          <mxGeometry x="42" y="106" width="150" height="40" as="geometry" />
        </mxCell>
        <mxCell id="f_1pqu_zXenyng1Q9uDo-121" value="" style="endArrow=diamondThin;endFill=0;endSize=24;html=1;rounded=0;exitX=1;exitY=0.5;exitDx=0;exitDy=0;entryX=0;entryY=0.5;entryDx=0;entryDy=0;edgeStyle=elbowEdgeStyle;" edge="1" parent="f_1pqu_zXenyng1Q9uDo-62" source="node53" target="AScol65-oUHLikT5JaTr-26">
          <mxGeometry width="160" relative="1" as="geometry">
            <mxPoint x="233" y="352.5799999999999" as="sourcePoint" />
            <mxPoint x="393" y="358" as="targetPoint" />
            <Array as="points">
              <mxPoint x="222" y="160" />
            </Array>
          </mxGeometry>
        </mxCell>
        <mxCell id="VIXJ5bsO2ajyu1eOoAfc-30" value="" style="endArrow=diamondThin;endFill=0;endSize=24;html=1;rounded=0;entryX=0;entryY=0.5;entryDx=0;entryDy=0;exitX=1;exitY=0.5;exitDx=0;exitDy=0;edgeStyle=elbowEdgeStyle;" edge="1" parent="f_1pqu_zXenyng1Q9uDo-62" source="node50" target="AScol65-oUHLikT5JaTr-26">
          <mxGeometry width="160" relative="1" as="geometry">
            <mxPoint x="187" y="273" as="sourcePoint" />
            <mxPoint x="277" y="205" as="targetPoint" />
            <Array as="points">
              <mxPoint x="222" y="262" />
            </Array>
          </mxGeometry>
        </mxCell>
        <mxCell id="RNvDilE5d-HPwLRLV1d9-47" value="" style="endArrow=diamondThin;endFill=0;endSize=24;html=1;rounded=0;exitX=0;exitY=0.5;exitDx=0;exitDy=0;entryX=1;entryY=0.5;entryDx=0;entryDy=0;elbow=vertical;" edge="1" parent="f_1pqu_zXenyng1Q9uDo-62" source="f_1pqu_zXenyng1Q9uDo-74" target="RNvDilE5d-HPwLRLV1d9-34">
          <mxGeometry width="160" relative="1" as="geometry">
            <mxPoint x="642" y="304" as="sourcePoint" />
            <mxPoint x="209" y="835" as="targetPoint" />
          </mxGeometry>
        </mxCell>
        <mxCell id="f_1pqu_zXenyng1Q9uDo-64" value="services" style="shape=folder;fontStyle=1;tabWidth=89;tabHeight=27;tabPosition=left;html=1;boundedLbl=1;labelInHeader=1;container=1;collapsible=0;whiteSpace=wrap;strokeWidth=4;fontSize=16;" vertex="1" parent="1">
          <mxGeometry x="4847" y="-879" width="216" height="420" as="geometry" />
        </mxCell>
        <mxCell id="f_1pqu_zXenyng1Q9uDo-65" value="" style="html=1;strokeColor=none;resizeWidth=1;resizeHeight=1;fillColor=none;part=1;connectable=0;allowArrows=0;deletable=0;whiteSpace=wrap;fontSize=16;" vertex="1" parent="f_1pqu_zXenyng1Q9uDo-64">
          <mxGeometry width="216" height="294" relative="1" as="geometry">
            <mxPoint y="30" as="offset" />
          </mxGeometry>
        </mxCell>
        <mxCell id="f_1pqu_zXenyng1Q9uDo-67" value="«interface»&lt;br style=&quot;border-color: var(--border-color); font-size: 16px;&quot;&gt;&lt;b style=&quot;border-color: var(--border-color); font-size: 16px;&quot;&gt;LocationService&lt;br style=&quot;font-size: 16px;&quot;&gt;&lt;/b&gt;" style="ellipse;shape=umlControl;whiteSpace=wrap;html=1;fontSize=16;movable=1;resizable=1;rotatable=1;deletable=1;editable=1;locked=0;connectable=1;" vertex="1" parent="f_1pqu_zXenyng1Q9uDo-64">
          <mxGeometry x="74.5" y="56" width="70" height="80" as="geometry" />
        </mxCell>
        <mxCell id="f_1pqu_zXenyng1Q9uDo-66" value="«interface»&lt;br style=&quot;border-color: var(--border-color); font-size: 16px;&quot;&gt;&lt;b style=&quot;border-color: var(--border-color); font-size: 16px;&quot;&gt;NavigationService&lt;br style=&quot;font-size: 16px;&quot;&gt;&lt;/b&gt;" style="ellipse;shape=umlControl;whiteSpace=wrap;html=1;fontSize=16;movable=1;resizable=1;rotatable=1;deletable=1;editable=1;locked=0;connectable=1;" vertex="1" parent="f_1pqu_zXenyng1Q9uDo-64">
          <mxGeometry x="74.5" y="234" width="70" height="80" as="geometry" />
        </mxCell>
        <mxCell id="f_1pqu_zXenyng1Q9uDo-68" value="apis" style="shape=folder;fontStyle=1;tabWidth=110;tabHeight=30;tabPosition=left;html=1;boundedLbl=1;labelInHeader=1;container=1;collapsible=0;whiteSpace=wrap;strokeWidth=4;fontSize=16;" vertex="1" parent="1">
          <mxGeometry x="5141" y="-879" width="249" height="422" as="geometry" />
        </mxCell>
        <mxCell id="f_1pqu_zXenyng1Q9uDo-69" value="" style="html=1;strokeColor=none;resizeWidth=1;resizeHeight=1;fillColor=none;part=1;connectable=0;allowArrows=0;deletable=0;whiteSpace=wrap;fontSize=16;" vertex="1" parent="f_1pqu_zXenyng1Q9uDo-68">
          <mxGeometry width="249" height="295.40000000000003" relative="1" as="geometry">
            <mxPoint y="30" as="offset" />
          </mxGeometry>
        </mxCell>
        <mxCell id="f_1pqu_zXenyng1Q9uDo-73" value="«interface»&lt;br style=&quot;border-color: var(--border-color); font-size: 16px;&quot;&gt;&lt;span style=&quot;font-size: 16px;&quot;&gt;&lt;b style=&quot;font-size: 16px;&quot;&gt;OneMapApi&lt;/b&gt;&lt;/span&gt;" style="shape=umlBoundary;whiteSpace=wrap;html=1;fontSize=16;" vertex="1" parent="f_1pqu_zXenyng1Q9uDo-68">
          <mxGeometry x="74.5" y="60" width="100" height="80" as="geometry" />
        </mxCell>
        <mxCell id="f_1pqu_zXenyng1Q9uDo-72" value="«interface»&lt;br style=&quot;border-color: var(--border-color); font-size: 16px;&quot;&gt;&lt;b style=&quot;border-color: var(--border-color); font-size: 16px;&quot;&gt;PipApi&lt;/b&gt;" style="shape=umlBoundary;whiteSpace=wrap;html=1;fontSize=16;" vertex="1" parent="f_1pqu_zXenyng1Q9uDo-68">
          <mxGeometry x="74.5" y="183" width="100" height="80" as="geometry" />
        </mxCell>
        <mxCell id="f_1pqu_zXenyng1Q9uDo-75" value="«interface»&lt;br style=&quot;border-color: var(--border-color); font-size: 16px;&quot;&gt;&lt;b style=&quot;border-color: var(--border-color); font-size: 16px;&quot;&gt;FirebaseApi&lt;/b&gt;" style="shape=umlBoundary;whiteSpace=wrap;html=1;fontSize=16;" vertex="1" parent="f_1pqu_zXenyng1Q9uDo-68">
          <mxGeometry x="74.5" y="306" width="100" height="80" as="geometry" />
        </mxCell>
        <mxCell id="f_1pqu_zXenyng1Q9uDo-77" value="data" style="shape=folder;fontStyle=1;tabWidth=110;tabHeight=30;tabPosition=left;html=1;boundedLbl=1;labelInHeader=1;container=1;collapsible=0;whiteSpace=wrap;strokeWidth=4;fontSize=16;perimeterSpacing=0;" vertex="1" parent="1">
          <mxGeometry x="3942" y="-830" width="850" height="371" as="geometry" />
        </mxCell>
        <mxCell id="f_1pqu_zXenyng1Q9uDo-78" value="" style="html=1;strokeColor=none;resizeWidth=1;resizeHeight=1;fillColor=none;part=1;connectable=0;allowArrows=0;deletable=0;whiteSpace=wrap;fontSize=16;" vertex="1" parent="f_1pqu_zXenyng1Q9uDo-77">
          <mxGeometry width="850" height="259.7" relative="1" as="geometry">
            <mxPoint y="30" as="offset" />
          </mxGeometry>
        </mxCell>
        <mxCell id="RNvDilE5d-HPwLRLV1d9-21" value="SearchHistoryDb" style="ellipse;shape=umlControl;whiteSpace=wrap;html=1;fontSize=16;" vertex="1" parent="f_1pqu_zXenyng1Q9uDo-77">
          <mxGeometry x="698.001012145749" y="98.99910197869099" width="131.49797570850203" height="80.60882800608829" as="geometry" />
        </mxCell>
        <mxCell id="RNvDilE5d-HPwLRLV1d9-12" value="«interface»&lt;br style=&quot;font-size: 16px;&quot;&gt;SearchHistoryDao" style="ellipse;shape=umlControl;whiteSpace=wrap;html=1;fontSize=16;" vertex="1" parent="f_1pqu_zXenyng1Q9uDo-77">
          <mxGeometry x="756" y="242.99999999999977" width="70" height="80" as="geometry" />
        </mxCell>
        <mxCell id="RNvDilE5d-HPwLRLV1d9-20" value="VisitedLocationsDb" style="ellipse;shape=umlControl;whiteSpace=wrap;html=1;fontSize=16;" vertex="1" parent="f_1pqu_zXenyng1Q9uDo-77">
          <mxGeometry x="489.9957085020242" y="98.9971080669709" width="131.49797570850203" height="80.60882800608829" as="geometry" />
        </mxCell>
        <mxCell id="RNvDilE5d-HPwLRLV1d9-11" value="«interface»&lt;br style=&quot;font-size: 16px;&quot;&gt;VisitedLocationsDao" style="ellipse;shape=umlControl;whiteSpace=wrap;html=1;fontSize=16;" vertex="1" parent="f_1pqu_zXenyng1Q9uDo-77">
          <mxGeometry x="517.0037651821865" y="243.00757990867567" width="131.49797570850203" height="80.60882800608829" as="geometry" />
        </mxCell>
        <mxCell id="RNvDilE5d-HPwLRLV1d9-19" value="UserPrefsDb" style="ellipse;shape=umlControl;whiteSpace=wrap;html=1;fontSize=16;" vertex="1" parent="f_1pqu_zXenyng1Q9uDo-77">
          <mxGeometry x="281.9957085020242" y="98.99945205479435" width="131.49797570850203" height="80.60882800608829" as="geometry" />
        </mxCell>
        <mxCell id="RNvDilE5d-HPwLRLV1d9-10" value="«interface»&lt;br style=&quot;font-size: 16px;&quot;&gt;UserLocationsDao" style="ellipse;shape=umlControl;whiteSpace=wrap;html=1;fontSize=16;" vertex="1" parent="f_1pqu_zXenyng1Q9uDo-77">
          <mxGeometry x="310.0021862348178" y="243.00316590563148" width="131.49797570850203" height="80.60882800608829" as="geometry" />
        </mxCell>
        <mxCell id="RNvDilE5d-HPwLRLV1d9-35" value="CoordiinateConverter" style="ellipse;shape=umlControl;whiteSpace=wrap;html=1;fontSize=16;" vertex="1" parent="f_1pqu_zXenyng1Q9uDo-77">
          <mxGeometry x="87.99534412955472" y="242.39509893455093" width="131.49797570850203" height="80.60882800608829" as="geometry" />
        </mxCell>
        <mxCell id="RNvDilE5d-HPwLRLV1d9-55" value="" style="endArrow=block;dashed=1;endFill=0;endSize=12;html=1;rounded=0;entryX=0.496;entryY=0.109;entryDx=0;entryDy=0;entryPerimeter=0;exitX=0.696;exitY=0.964;exitDx=0;exitDy=0;exitPerimeter=0;" edge="1" parent="f_1pqu_zXenyng1Q9uDo-77" source="RNvDilE5d-HPwLRLV1d9-21" target="RNvDilE5d-HPwLRLV1d9-12">
          <mxGeometry width="160" relative="1" as="geometry">
            <mxPoint x="-224" y="514" as="sourcePoint" />
            <mxPoint x="-315" y="388" as="targetPoint" />
          </mxGeometry>
        </mxCell>
        <mxCell id="RNvDilE5d-HPwLRLV1d9-54" value="" style="endArrow=block;dashed=1;endFill=0;endSize=12;html=1;rounded=0;entryX=0.504;entryY=0.123;entryDx=0;entryDy=0;entryPerimeter=0;exitX=0.701;exitY=0.978;exitDx=0;exitDy=0;exitPerimeter=0;" edge="1" parent="f_1pqu_zXenyng1Q9uDo-77" source="RNvDilE5d-HPwLRLV1d9-20" target="RNvDilE5d-HPwLRLV1d9-11">
          <mxGeometry width="160" relative="1" as="geometry">
            <mxPoint x="476.7206477732793" y="606.0471841704718" as="sourcePoint" />
            <mxPoint x="305.77327935222684" y="479.08828006088277" as="targetPoint" />
          </mxGeometry>
        </mxCell>
        <mxCell id="RNvDilE5d-HPwLRLV1d9-53" value="" style="endArrow=block;dashed=1;endFill=0;endSize=12;html=1;rounded=0;entryX=0.5;entryY=0.106;entryDx=0;entryDy=0;entryPerimeter=0;exitX=0.703;exitY=0.999;exitDx=0;exitDy=0;exitPerimeter=0;" edge="1" parent="f_1pqu_zXenyng1Q9uDo-77" source="RNvDilE5d-HPwLRLV1d9-19" target="RNvDilE5d-HPwLRLV1d9-10">
          <mxGeometry width="160" relative="1" as="geometry">
            <mxPoint x="570.6477732793524" y="460.95129375951296" as="sourcePoint" />
            <mxPoint x="871.214574898785" y="460.95129375951296" as="targetPoint" />
          </mxGeometry>
        </mxCell>
        <mxCell id="RNvDilE5d-HPwLRLV1d9-50" value="" style="endArrow=open;endFill=1;endSize=12;html=1;rounded=0;exitX=0.495;exitY=0.996;exitDx=0;exitDy=0;exitPerimeter=0;entryX=0.5;entryY=0.102;entryDx=0;entryDy=0;entryPerimeter=0;edgeStyle=elbowEdgeStyle;elbow=vertical;" edge="1" parent="f_1pqu_zXenyng1Q9uDo-77" source="RNvDilE5d-HPwLRLV1d9-19" target="RNvDilE5d-HPwLRLV1d9-35">
          <mxGeometry width="160" relative="1" as="geometry">
            <mxPoint x="1051.5546558704455" y="322.9086757990867" as="sourcePoint" />
            <mxPoint x="1352.1214574898786" y="322.9086757990867" as="targetPoint" />
          </mxGeometry>
        </mxCell>
        <mxCell id="RNvDilE5d-HPwLRLV1d9-51" value="" style="endArrow=open;endFill=1;endSize=12;html=1;rounded=0;exitX=0.501;exitY=0.996;exitDx=0;exitDy=0;exitPerimeter=0;entryX=0.5;entryY=0.113;entryDx=0;entryDy=0;entryPerimeter=0;edgeStyle=elbowEdgeStyle;elbow=vertical;" edge="1" parent="f_1pqu_zXenyng1Q9uDo-77" source="RNvDilE5d-HPwLRLV1d9-20" target="RNvDilE5d-HPwLRLV1d9-35">
          <mxGeometry width="160" relative="1" as="geometry">
            <mxPoint x="474.8421052631579" y="681.6179604261797" as="sourcePoint" />
            <mxPoint x="818.6153846153848" y="849.8888888888889" as="targetPoint" />
          </mxGeometry>
        </mxCell>
        <mxCell id="RNvDilE5d-HPwLRLV1d9-52" value="" style="endArrow=open;endFill=1;endSize=12;html=1;rounded=0;exitX=0.505;exitY=1.017;exitDx=0;exitDy=0;exitPerimeter=0;entryX=0.5;entryY=0.102;entryDx=0;entryDy=0;entryPerimeter=0;edgeStyle=elbowEdgeStyle;elbow=vertical;" edge="1" parent="f_1pqu_zXenyng1Q9uDo-77" source="RNvDilE5d-HPwLRLV1d9-21" target="RNvDilE5d-HPwLRLV1d9-35">
          <mxGeometry width="160" relative="1" as="geometry">
            <mxPoint x="493.62753036437243" y="691.6940639269407" as="sourcePoint" />
            <mxPoint x="837.4008097165988" y="859.96499238965" as="targetPoint" />
          </mxGeometry>
        </mxCell>
        <mxCell id="RNvDilE5d-HPwLRLV1d9-45" value="" style="endArrow=diamondThin;endFill=0;endSize=24;html=1;rounded=0;exitX=0.5;exitY=1;exitDx=0;exitDy=0;entryX=0.352;entryY=0.134;entryDx=0;entryDy=0;entryPerimeter=0;edgeStyle=elbowEdgeStyle;elbow=vertical;" edge="1" parent="1" source="f_1pqu_zXenyng1Q9uDo-74" target="RNvDilE5d-HPwLRLV1d9-21">
          <mxGeometry width="160" relative="1" as="geometry">
            <mxPoint x="3613" y="-1258" as="sourcePoint" />
            <mxPoint x="3773" y="-1258" as="targetPoint" />
            <Array as="points">
              <mxPoint x="4331" y="-908" />
            </Array>
          </mxGeometry>
        </mxCell>
        <mxCell id="RNvDilE5d-HPwLRLV1d9-46" value="" style="endArrow=diamondThin;endFill=0;endSize=24;html=1;rounded=0;exitX=0.5;exitY=1;exitDx=0;exitDy=0;entryX=0.347;entryY=0.134;entryDx=0;entryDy=0;entryPerimeter=0;edgeStyle=elbowEdgeStyle;elbow=vertical;" edge="1" parent="1" source="f_1pqu_zXenyng1Q9uDo-74" target="RNvDilE5d-HPwLRLV1d9-20">
          <mxGeometry width="160" relative="1" as="geometry">
            <mxPoint x="3553" y="-1406" as="sourcePoint" />
            <mxPoint x="3275" y="-873" as="targetPoint" />
            <Array as="points">
              <mxPoint x="4228" y="-908" />
            </Array>
          </mxGeometry>
        </mxCell>
        <mxCell id="RNvDilE5d-HPwLRLV1d9-56" value="" style="endArrow=diamondThin;endFill=0;endSize=24;html=1;rounded=0;exitX=0.5;exitY=1;exitDx=0;exitDy=0;strokeWidth=1;elbow=vertical;entryX=-0.005;entryY=0.549;entryDx=0;entryDy=0;entryPerimeter=0;edgeStyle=orthogonalEdgeStyle;" edge="1" parent="1" source="RNvDilE5d-HPwLRLV1d9-34" target="RNvDilE5d-HPwLRLV1d9-19">
          <mxGeometry width="160" relative="1" as="geometry">
            <mxPoint x="3073" y="-1207" as="sourcePoint" />
            <mxPoint x="4195" y="-746" as="targetPoint" />
          </mxGeometry>
        </mxCell>
        <mxCell id="RNvDilE5d-HPwLRLV1d9-64" value="" style="endArrow=open;startArrow=cross;endFill=0;startFill=0;endSize=8;startSize=10;html=1;rounded=0;exitX=0.194;exitY=0.918;exitDx=0;exitDy=0;exitPerimeter=0;entryX=0.784;entryY=0.193;entryDx=0;entryDy=0;entryPerimeter=0;elbow=vertical;" edge="1" parent="1" source="f_1pqu_zXenyng1Q9uDo-34" target="RNvDilE5d-HPwLRLV1d9-19">
          <mxGeometry width="160" relative="1" as="geometry">
            <mxPoint x="4094" y="-1184" as="sourcePoint" />
            <mxPoint x="3840" y="-996" as="targetPoint" />
          </mxGeometry>
        </mxCell>
        <mxCell id="SGS_JYI6jYGCI0mKnkx4-2" value="" style="endArrow=open;startArrow=cross;endFill=0;startFill=0;endSize=8;startSize=10;html=1;rounded=0;exitX=0.602;exitY=0.996;exitDx=0;exitDy=0;exitPerimeter=0;entryX=0.484;entryY=0.132;entryDx=0;entryDy=0;entryPerimeter=0;elbow=vertical;" edge="1" parent="1" source="f_1pqu_zXenyng1Q9uDo-24" target="f_1pqu_zXenyng1Q9uDo-38">
          <mxGeometry width="160" relative="1" as="geometry">
            <mxPoint x="3550" y="-2460" as="sourcePoint" />
            <mxPoint x="3553" y="-2137" as="targetPoint" />
          </mxGeometry>
        </mxCell>
        <mxCell id="f_1pqu_zXenyng1Q9uDo-102" value="" style="endArrow=open;startArrow=cross;endFill=0;startFill=0;endSize=8;startSize=10;html=1;rounded=0;exitX=0.545;exitY=0.994;exitDx=0;exitDy=0;exitPerimeter=0;entryX=0.433;entryY=0.18;entryDx=0;entryDy=0;entryPerimeter=0;elbow=vertical;" edge="1" parent="1" source="f_1pqu_zXenyng1Q9uDo-23" target="f_1pqu_zXenyng1Q9uDo-34">
          <mxGeometry width="160" relative="1" as="geometry">
            <mxPoint x="4288" y="-1472" as="sourcePoint" />
            <mxPoint x="4448" y="-1472" as="targetPoint" />
          </mxGeometry>
        </mxCell>
        <mxCell id="RNvDilE5d-HPwLRLV1d9-66" value="" style="endArrow=open;startArrow=cross;endFill=0;startFill=0;endSize=8;startSize=10;html=1;rounded=0;exitX=0.5;exitY=1;exitDx=0;exitDy=0;exitPerimeter=0;entryX=0.615;entryY=0.131;entryDx=0;entryDy=0;entryPerimeter=0;elbow=vertical;" edge="1" parent="1" source="f_1pqu_zXenyng1Q9uDo-38" target="RNvDilE5d-HPwLRLV1d9-20">
          <mxGeometry width="160" relative="1" as="geometry">
            <mxPoint x="3962" y="-933" as="sourcePoint" />
            <mxPoint x="3880" y="-510" as="targetPoint" />
          </mxGeometry>
        </mxCell>
        <mxCell id="RNvDilE5d-HPwLRLV1d9-67" value="" style="endArrow=open;startArrow=cross;endFill=0;startFill=0;endSize=8;startSize=10;html=1;rounded=0;exitX=0.5;exitY=1;exitDx=0;exitDy=0;exitPerimeter=0;entryX=0.649;entryY=0.122;entryDx=0;entryDy=0;entryPerimeter=0;edgeStyle=elbowEdgeStyle;elbow=vertical;" edge="1" parent="1" source="f_1pqu_zXenyng1Q9uDo-38" target="RNvDilE5d-HPwLRLV1d9-21">
          <mxGeometry width="160" relative="1" as="geometry">
            <mxPoint x="5042" y="-1122" as="sourcePoint" />
            <mxPoint x="3182" y="-764" as="targetPoint" />
            <Array as="points">
              <mxPoint x="4615" y="-778" />
            </Array>
          </mxGeometry>
        </mxCell>
        <mxCell id="SGS_JYI6jYGCI0mKnkx4-1" value="" style="endArrow=open;startArrow=cross;endFill=0;startFill=0;endSize=8;startSize=10;html=1;rounded=0;exitX=0.6;exitY=1;exitDx=0;exitDy=0;exitPerimeter=0;entryX=0.478;entryY=0.159;entryDx=0;entryDy=0;entryPerimeter=0;elbow=vertical;" edge="1" parent="1" source="f_1pqu_zXenyng1Q9uDo-27" target="f_1pqu_zXenyng1Q9uDo-37">
          <mxGeometry width="160" relative="1" as="geometry">
            <mxPoint x="4818" y="-1242" as="sourcePoint" />
            <mxPoint x="4978" y="-1242" as="targetPoint" />
          </mxGeometry>
        </mxCell>
        <mxCell id="VIXJ5bsO2ajyu1eOoAfc-4" value="" style="endArrow=open;startArrow=cross;endFill=0;startFill=0;endSize=8;startSize=10;html=1;rounded=0;entryX=-0.004;entryY=0.501;entryDx=0;entryDy=0;entryPerimeter=0;exitX=1.007;exitY=0.549;exitDx=0;exitDy=0;exitPerimeter=0;" edge="1" parent="1" source="f_1pqu_zXenyng1Q9uDo-67" target="f_1pqu_zXenyng1Q9uDo-73">
          <mxGeometry width="160" relative="1" as="geometry">
            <mxPoint x="4646" y="-760" as="sourcePoint" />
            <mxPoint x="4806" y="-760" as="targetPoint" />
          </mxGeometry>
        </mxCell>
        <mxCell id="VIXJ5bsO2ajyu1eOoAfc-9" value="" style="endArrow=open;startArrow=cross;endFill=0;startFill=0;endSize=8;startSize=10;html=1;rounded=0;exitX=0.237;exitY=0.954;exitDx=0;exitDy=0;exitPerimeter=0;entryX=0.506;entryY=0.1;entryDx=0;entryDy=0;entryPerimeter=0;elbow=vertical;edgeStyle=elbowEdgeStyle;" edge="1" parent="1" source="f_1pqu_zXenyng1Q9uDo-37" target="f_1pqu_zXenyng1Q9uDo-67">
          <mxGeometry width="160" relative="1" as="geometry">
            <mxPoint x="5044" y="-1229" as="sourcePoint" />
            <mxPoint x="4110" y="-791" as="targetPoint" />
            <Array as="points">
              <mxPoint x="4802" y="-1020" />
            </Array>
          </mxGeometry>
        </mxCell>
        <mxCell id="VIXJ5bsO2ajyu1eOoAfc-1" value="" style="endArrow=open;startArrow=cross;endFill=0;startFill=0;endSize=8;startSize=10;html=1;rounded=0;entryX=-0.002;entryY=0.49;entryDx=0;entryDy=0;entryPerimeter=0;edgeStyle=elbowEdgeStyle;exitX=1.01;exitY=0.542;exitDx=0;exitDy=0;exitPerimeter=0;" edge="1" parent="1" source="f_1pqu_zXenyng1Q9uDo-66" target="f_1pqu_zXenyng1Q9uDo-72">
          <mxGeometry width="160" relative="1" as="geometry">
            <mxPoint x="4342" y="-2174" as="sourcePoint" />
            <mxPoint x="4502" y="-2174" as="targetPoint" />
          </mxGeometry>
        </mxCell>
        <mxCell id="VIXJ5bsO2ajyu1eOoAfc-3" value="" style="endArrow=open;startArrow=cross;endFill=0;startFill=0;endSize=8;startSize=10;html=1;rounded=0;exitX=1.009;exitY=0.551;exitDx=0;exitDy=0;exitPerimeter=0;entryX=-0.002;entryY=0.496;entryDx=0;entryDy=0;entryPerimeter=0;edgeStyle=elbowEdgeStyle;" edge="1" parent="1" source="f_1pqu_zXenyng1Q9uDo-66" target="f_1pqu_zXenyng1Q9uDo-75">
          <mxGeometry width="160" relative="1" as="geometry">
            <mxPoint x="4518" y="-2387" as="sourcePoint" />
            <mxPoint x="4501" y="-2038" as="targetPoint" />
            <Array as="points" />
          </mxGeometry>
        </mxCell>
        <mxCell id="VIXJ5bsO2ajyu1eOoAfc-23" value="" style="endArrow=open;startArrow=cross;endFill=0;startFill=0;endSize=8;startSize=10;html=1;rounded=0;entryX=0.503;entryY=0.064;entryDx=0;entryDy=0;entryPerimeter=0;exitX=0.776;exitY=0.936;exitDx=0;exitDy=0;exitPerimeter=0;edgeStyle=orthogonalEdgeStyle;elbow=vertical;" edge="1" parent="1" source="f_1pqu_zXenyng1Q9uDo-36" target="f_1pqu_zXenyng1Q9uDo-66">
          <mxGeometry width="160" relative="1" as="geometry">
            <mxPoint x="5002" y="-769" as="sourcePoint" />
            <mxPoint x="5225" y="-769" as="targetPoint" />
            <Array as="points">
              <mxPoint x="4695" y="-997" />
              <mxPoint x="4818" y="-997" />
              <mxPoint x="4818" y="-640" />
            </Array>
          </mxGeometry>
        </mxCell>
        <mxCell id="VIXJ5bsO2ajyu1eOoAfc-26" value="" style="endArrow=open;startArrow=cross;endFill=0;startFill=0;endSize=8;startSize=10;html=1;rounded=0;exitX=0.601;exitY=0.992;exitDx=0;exitDy=0;exitPerimeter=0;entryX=0.508;entryY=0.098;entryDx=0;entryDy=0;entryPerimeter=0;elbow=vertical;" edge="1" parent="1" source="f_1pqu_zXenyng1Q9uDo-25" target="f_1pqu_zXenyng1Q9uDo-36">
          <mxGeometry width="160" relative="1" as="geometry">
            <mxPoint x="4676" y="-1447" as="sourcePoint" />
            <mxPoint x="4676" y="-1226" as="targetPoint" />
          </mxGeometry>
        </mxCell>
        <mxCell id="VIXJ5bsO2ajyu1eOoAfc-27" value="" style="endArrow=open;startArrow=cross;endFill=0;startFill=0;endSize=8;startSize=10;html=1;rounded=0;exitX=0.584;exitY=1.021;exitDx=0;exitDy=0;exitPerimeter=0;entryX=0.508;entryY=0.083;entryDx=0;entryDy=0;entryPerimeter=0;elbow=vertical;edgeStyle=elbowEdgeStyle;" edge="1" parent="1" source="VIXJ5bsO2ajyu1eOoAfc-24" target="f_1pqu_zXenyng1Q9uDo-36">
          <mxGeometry width="160" relative="1" as="geometry">
            <mxPoint x="4830" y="-1448" as="sourcePoint" />
            <mxPoint x="4832" y="-1230" as="targetPoint" />
            <Array as="points">
              <mxPoint x="4900" y="-1365" />
            </Array>
          </mxGeometry>
        </mxCell>
        <mxCell id="VIXJ5bsO2ajyu1eOoAfc-28" value="" style="endArrow=cross;startArrow=open;endFill=0;startFill=0;endSize=8;startSize=10;html=1;rounded=0;exitX=0;exitY=0.5;exitDx=0;exitDy=0;entryX=1.058;entryY=0.528;entryDx=0;entryDy=0;entryPerimeter=0;elbow=vertical;edgeStyle=orthogonalEdgeStyle;" edge="1" parent="1" source="AScol65-oUHLikT5JaTr-22" target="f_1pqu_zXenyng1Q9uDo-43">
          <mxGeometry width="160" relative="1" as="geometry">
            <mxPoint x="4522" y="-1447" as="sourcePoint" />
            <mxPoint x="4523" y="-1228" as="targetPoint" />
            <Array as="points">
              <mxPoint x="3698" y="-1516" />
              <mxPoint x="3698" y="-1729" />
              <mxPoint x="5231" y="-1729" />
              <mxPoint x="5231" y="-1080" />
            </Array>
          </mxGeometry>
        </mxCell>
        <mxCell id="VIXJ5bsO2ajyu1eOoAfc-29" value="" style="endArrow=cross;startArrow=open;endFill=0;startFill=0;endSize=8;startSize=10;html=1;rounded=0;exitX=0;exitY=0.5;exitDx=0;exitDy=0;elbow=vertical;entryX=1.058;entryY=0.528;entryDx=0;entryDy=0;entryPerimeter=0;edgeStyle=orthogonalEdgeStyle;" edge="1" parent="1" source="f_1pqu_zXenyng1Q9uDo-86" target="f_1pqu_zXenyng1Q9uDo-43">
          <mxGeometry width="160" relative="1" as="geometry">
            <mxPoint x="3765" y="-1506" as="sourcePoint" />
            <mxPoint x="5046" y="-1084" as="targetPoint" />
            <Array as="points">
              <mxPoint x="3698" y="-1404" />
              <mxPoint x="3698" y="-1728" />
              <mxPoint x="5229" y="-1728" />
              <mxPoint x="5229" y="-1080" />
            </Array>
          </mxGeometry>
        </mxCell>
        <mxCell id="cVjXqj94c4nkJDvLBms6-1" value="" style="endArrow=open;startArrow=cross;endFill=0;startFill=0;endSize=8;startSize=10;html=1;rounded=0;entryX=1.028;entryY=0.545;entryDx=0;entryDy=0;entryPerimeter=0;exitX=0;exitY=0.543;exitDx=0;exitDy=0;exitPerimeter=0;edgeStyle=orthogonalEdgeStyle;elbow=vertical;" edge="1" parent="1" source="f_1pqu_zXenyng1Q9uDo-36" target="RNvDilE5d-HPwLRLV1d9-20">
          <mxGeometry width="160" relative="1" as="geometry">
            <mxPoint x="4705" y="-1164" as="sourcePoint" />
            <mxPoint x="4967" y="-630" as="targetPoint" />
            <Array as="points">
              <mxPoint x="4612" y="-1206" />
              <mxPoint x="4612" y="-687" />
            </Array>
          </mxGeometry>
        </mxCell>
      </root>
    </mxGraphModel>
  </diagram>
</mxfile>
